<?xml version="1.0" standalone="no"?>
<!DOCTYPE svg PUBLIC "-//W3C//DTD SVG 20010904//EN"
 "http://www.w3.org/TR/2001/REC-SVG-20010904/DTD/svg10.dtd">
<svg version="1.0" xmlns="http://www.w3.org/2000/svg"
 width="512.000000pt" height="165.000000pt" viewBox="0 0 512.000000 165.000000"
 preserveAspectRatio="xMidYMid meet">

<g transform="translate(0.000000,165.000000) scale(0.100000,-0.100000)"
fill="#000000" stroke="none">
<path d="M665 1524 c-87 -19 -234 -89 -300 -144 -115 -96 -203 -235 -241 -380
-25 -96 -23 -254 5 -353 72 -260 276 -458 527 -511 l31 -7 7 131 6 131 -29 42
c-16 23 -47 62 -69 87 l-40 45 -70 -3 c-39 -2 -87 1 -106 8 -62 20 -166 157
-135 176 22 13 127 16 164 4 47 -15 111 -72 135 -120 10 -20 37 -49 59 -65 23
-15 57 -45 76 -66 l34 -38 11 41 c10 34 8 47 -8 87 -25 58 -42 148 -42 224 0
45 -7 74 -27 116 -37 75 -43 161 -15 224 22 49 97 137 117 137 18 0 68 -117
73 -173 6 -64 -20 -129 -76 -190 l-45 -48 16 -95 c10 -52 23 -109 30 -126 l13
-31 42 87 c27 56 42 102 42 126 0 144 114 264 283 294 l37 7 0 -60 c0 -87 -32
-165 -90 -223 -45 -43 -93 -65 -206 -94 -10 -2 -33 -75 -60 -187 l-6 -27 63
30 c35 16 72 30 83 30 10 0 34 13 52 30 61 53 111 73 173 68 52 -4 145 -40
158 -61 9 -15 -49 -66 -105 -94 -65 -32 -127 -28 -202 13 l-50 27 -62 -32
c-110 -56 -117 -65 -128 -162 -5 -46 -10 -128 -10 -181 l0 -98 61 0 c197 0
426 119 542 282 98 139 140 265 140 423 0 125 -21 214 -75 325 -34 68 -60 103
-133 176 -77 79 -103 98 -185 137 -153 74 -307 94 -465 61z m399 -109 c3 -8 8
-36 12 -63 12 -94 -31 -175 -123 -229 -37 -21 -47 -24 -54 -12 -15 26 -21 114
-9 158 13 49 68 114 119 141 44 23 47 24 55 5z m-616 -312 c66 -31 118 -83
144 -141 23 -51 34 -143 24 -197 -7 -34 -9 -36 -34 -31 -59 14 -152 68 -187
108 -19 23 -42 65 -50 92 -15 51 -21 187 -8 200 10 10 49 -1 111 -31z m855
-233 c12 -11 -7 -42 -48 -79 -28 -25 -45 -31 -80 -31 -51 0 -75 8 -75 24 0 23
62 86 93 95 34 10 96 5 110 -9z m-284 -384 c25 -14 101 -89 101 -102 0 -13
-74 -34 -123 -34 -43 0 -62 6 -93 29 -35 25 -74 70 -74 86 0 3 15 12 33 20 42
19 121 19 156 1z"/>
</g>
</svg>
