<?xml version="1.0" encoding="utf-8"?>
<svg viewBox="0 0 2156.759 949.224" xmlns="http://www.w3.org/2000/svg">
  <g transform="matrix(0.4379999935626984, 0.8989999890327455, -0.8989999890327455, 0.4379999935626984, 518.172020234406, 2.63100015957653)">
    <rect width="15.038" height="9.411" transform="translate(988.943 74.645)" fill="#53bf6f"/>
    <rect width="4.6" height="4.6" transform="translate(957.888 63.811)" fill="#53bf6f"/>
    <path d="M815.757,689.27l-7.828,6.222c-50.606-64.232-115.44-117.186-188.01-155.3s-153.1-61.5-235.008-66.732h0c-28.245-1.808-56.715-1.6-85.218-2.977-28.3-1.355-56.817-4.36-84.151-12.465-27.44-8.128-53.731-21.7-74.045-42.01s-34.146-47.832-35.063-76.6c-.78-24.989,8.7-50.416,26.745-67.672h0a79.25,79.25,0,0,1,32.034-18.691,73.546,73.546,0,0,1,36.97-1.3,68.6,68.6,0,0,1,32.47,17.494h0a64.245,64.245,0,0,1,17.961,32.072h0a60.393,60.393,0,0,1-3.372,36.464A56.956,56.956,0,0,1,224.883,364.9a54.733,54.733,0,0,1-56.656-2.084,54.484,54.484,0,0,0,56.411,1.648A56.3,56.3,0,0,0,248.5,337.453a59.435,59.435,0,0,0,3.024-35.9,62.977,62.977,0,0,0-17.861-31.286h0A67.011,67.011,0,0,0,201.8,253.439a71.651,71.651,0,0,0-36,1.57,77.062,77.062,0,0,0-30.986,18.427c-17.386,16.861-26.345,41.7-25.4,65.868,1.067,27.857,14.811,54.476,34.687,74.077C164,433,189.825,446,216.779,453.781c26.872,7.749,55.021,10.448,83.139,11.58,28.324,1.129,56.8.685,85.34,2.265h0c82.815,4.6,164.466,27.533,238.313,65.534s140.1,91.161,192.185,156.11h0Z" transform="translate(-16.03 -134.904)" fill="#53bf6f" fill-rule="evenodd"/>
    <path d="M772.4,462.655a87.421,87.421,0,0,0-28.8-3.6,85.629,85.629,0,0,0-65.219,17.425A86.542,86.542,0,0,0,650.4,515.5h0a85.888,85.888,0,0,0,19.445,88.528A85.278,85.278,0,0,0,709.9,627.05a83.444,83.444,0,0,0,84.469-27.464h0c11.266-13.588,18.092-31.2,17.22-48.719a59.384,59.384,0,0,0-6.862-25.17,54.74,54.74,0,0,0-6.7-9.768,51.939,51.939,0,0,0-10.554-9.716,48.929,48.929,0,0,0-24.67-8.6,45.347,45.347,0,0,0-25.615,6.091h0a42.408,42.408,0,0,0-17.5,20,39.973,39.973,0,0,0-1.363,26.844,38.894,38.894,0,0,0,9.687,16.028,39.12,39.12,0,0,1-10.1-15.89,40.732,40.732,0,0,1,.774-27.374,43.8,43.8,0,0,1,17.6-21.072h0a47.382,47.382,0,0,1,26.611-6.988,51.6,51.6,0,0,1,26.23,8.455,56.657,56.657,0,0,1,18.6,20.379,62.828,62.828,0,0,1,7.371,26.61c.941,18.528-6.082,37-17.859,51.266A87.394,87.394,0,0,1,757.3,629.209a88.415,88.415,0,0,1-48.386,1.817,89.454,89.454,0,0,1-42.135-24,90.512,90.512,0,0,1-23.434-42.534h0a90.651,90.651,0,0,1,32.033-91.831h0a90.914,90.914,0,0,1,97.026-10Z" transform="translate(-550.028 -134.904)" fill="#53bf6f" fill-rule="evenodd"/>
    <path d="M183.265,605.923l-5,6.09a226.267,226.267,0,0,1-72.751-238.591c5.887-19.911,14.71-39.229,27.714-55.617s30.463-29.653,50.561-35.914c20.122-6.263,42.862-4.916,61.3,5.426a65.387,65.387,0,0,1,22.936,21.46,59.025,59.025,0,0,1,9.4,29.934,55.253,55.253,0,0,1-10.885,34.541,53.068,53.068,0,0,1-30.237,19.725h0a51.035,51.035,0,0,1-35.644-4.9h0a49.14,49.14,0,0,1-22.882-27.593,48.248,48.248,0,0,1,3.956-38.231,47.521,47.521,0,0,0,19.333,65.077h0a49.985,49.985,0,0,0,34.95,4.421,51.611,51.611,0,0,0,29.185-19.5,53.389,53.389,0,0,0,10.146-33.473h0a56.779,56.779,0,0,0-9.365-28.681,62.79,62.79,0,0,0-22.251-20.35c-17.758-9.75-39.681-10.719-58.9-4.53-19.243,6.194-35.9,19.222-48.315,35.182s-20.744,34.869-26.305,54.394h0a219.876,219.876,0,0,0,73.05,231.129h0Z" transform="translate(532.399 -134.904)" fill="#53bf6f" fill-rule="evenodd"/>
    <path d="M435.706,405.615q-1.907,5.655-3.671,11.416a462.69,462.69,0,0,1-1.561-130.373c1.561-11.979,3.558-23.789,4.7-35.592,1.119-11.706,1.419-23.463-.421-34.868a92.293,92.293,0,0,0-21.227-45.767h0a86.507,86.507,0,0,0-42.673-26.756,81.443,81.443,0,0,0-50.219,2.735,76.977,76.977,0,0,0-38.2,32.617,75.907,75.907,0,0,0-5.6,62.738,76.981,76.981,0,0,0,44.326,45.126h0c12.915,4.924,27.358,6.258,40.679,2.734,13.3-3.515,25.476-12.03,32.437-23.873a46.092,46.092,0,0,0,6.263-19.473h0a42.38,42.38,0,0,0-3.213-20.157,39.237,39.237,0,0,0-12.6-16.008,36.544,36.544,0,0,0-19.062-7.083c-8.088-.547-16.508,1.886-22.573,7.223a26.254,26.254,0,0,0-7.012,9.763,23.845,23.845,0,0,0-1.617,11.87,22.763,22.763,0,0,0,3.017,8.793,22.857,22.857,0,0,1-3.179-8.773,24.122,24.122,0,0,1,1.427-12.033,26.746,26.746,0,0,1,6.967-10.07,32.072,32.072,0,0,1,23.037-7.817h0a37.77,37.77,0,0,1,19.839,6.974h0A40.836,40.836,0,0,1,398.987,225.4a44.347,44.347,0,0,1,3.739,21.053,48.419,48.419,0,0,1-6.23,20.6c-7.087,12.481-19.595,21.78-33.805,25.759-13.822,3.865-29.024,2.887-42.93-2.212a79.669,79.669,0,0,1-25.014-135.154,82.9,82.9,0,0,1,23.707-14.513,85.463,85.463,0,0,1,26.3-5.856,87.769,87.769,0,0,1,27.642,2.673,90.584,90.584,0,0,1,24.7,10.653A93.129,93.129,0,0,1,418.2,166.326a96.259,96.259,0,0,1,14.593,22.5,99.131,99.131,0,0,1,8.075,26.367c1.877,11.928,1.627,24.207.4,36.438-1.184,11.86-3.223,23.728-4.848,35.779a463.949,463.949,0,0,0-.712,118.2Z" transform="translate(196.518 -134.904)" fill="#53bf6f" fill-rule="evenodd"/>
    <path d="M533.614,520.912a121.466,121.466,0,0,0-28.085-9.708,121.008,121.008,0,0,0-155.593,60h0a122.1,122.1,0,0,0-10.459,69.208c1.952,13.473,6.208,26.692,13.549,38h0c7.332,11.294,17.823,20.721,30.248,25.59,12.393,4.862,26.843,5.079,38.8-.518h0a41.812,41.812,0,0,0,15.392-12.172h0a37.191,37.191,0,0,0-6.931-52.554,40.622,40.622,0,0,0-20.8-8.481c-7.255-.743-14.856.5-21.1,4.283h0c-6.226,3.773-11.081,10.219-12.17,17.5a21.731,21.731,0,0,0,5.43,17.85,20.247,20.247,0,0,0,8.126,5.278,19.284,19.284,0,0,0,24.006-10.465,20.048,20.048,0,0,0-1.386-18.456,19.935,19.935,0,0,1-12.7,30.528,20.516,20.516,0,0,1-10.246-.58,21.438,21.438,0,0,1-8.729-5.392,23.249,23.249,0,0,1-6.24-18.989,27.5,27.5,0,0,1,12.693-19.206,36.664,36.664,0,0,1,22.553-5.151,43.265,43.265,0,0,1,29.248,14.878,41.046,41.046,0,0,1,9.357,31.476h0a41.443,41.443,0,0,1-8.265,19.671,45.431,45.431,0,0,1-16.682,13.3c-13,6.077-28.441,5.957-41.754.756-13.3-5.2-24.446-15.086-32.195-26.983s-12.26-25.635-14.308-39.577a126.371,126.371,0,0,1,10.564-71.7h0a125.9,125.9,0,0,1,187.68-48.4Z" transform="translate(38.456 -134.904)" fill="#53bf6f" fill-rule="evenodd"/>
    <g transform="translate(338.54 94.986)">
      <path d="M508.41,164.49a71.841,71.841,0,0,1-7.876-3.93,67.271,67.271,0,0,1-11.059-30.795h0a65.137,65.137,0,0,1,8.382-38.344h0A68.68,68.68,0,0,1,507.9,78.036a66.532,66.532,0,0,0-8.646,14.008,62.566,62.566,0,0,0-5.038,17.337,61.47,61.47,0,0,0-1.193,19.993,64.788,64.788,0,0,0,15.389,35.116h0Z" transform="translate(-464.833 -54.987)" fill="#53bf6f" fill-rule="evenodd"/>
      <g transform="translate(0 50.969)">
        <path d="M532.773,136.144s-14.132-13.79-20.337-29.323C507.266,121.4,521.571,133.766,532.773,136.144Z" transform="translate(-511.347 -105.955)" fill="#53bf6f"/>
        <path d="M530.565,135.419s-11.034-9.914-21.17-29.464C525.623,107.1,532.614,125.024,530.565,135.419Z" transform="translate(-507.534 -105.955)" fill="#53bf6f"/>
      </g>
      <g transform="translate(13.078 11.278)">
        <path d="M519.7,97.355s-9.065-15.291-10.673-30.479C500.794,78.829,510.369,92.881,519.7,97.355Z" transform="translate(-505.896 -66.265)" fill="#53bf6f"/>
        <path d="M513.514,97.044s-7.291-11.177-11.375-30.779C516.223,70.694,517.93,88.18,513.514,97.044Z" transform="translate(-498.112 -66.265)" fill="#53bf6f"/>
      </g>
      <g transform="translate(41.118)">
        <path d="M480.8,77.032s3.56-12.869,10.851-22.045C481.1,57.582,478.458,70.014,480.8,77.032Z" transform="translate(-480.011 -54.987)" fill="#53bf6f"/>
        <path d="M477.827,77.643s2.265-9.73,10.654-22.554C493.268,64.4,484.8,74.9,477.827,77.643Z" transform="translate(-476.053 -54.987)" fill="#53bf6f"/>
      </g>
      <g transform="translate(31.717 30.837)">
        <path d="M469.585,103.781s18.036-5.39,30.529-15.432C497.24,102.272,479.754,106.436,469.585,103.781Z" transform="translate(-468.643 -85.824)" fill="#53bf6f"/>
        <path d="M469.788,102.539s13.67-3.518,31.268-15.205C487.433,81.629,473.155,93.283,469.788,102.539Z" transform="translate(-469.788 -85.824)" fill="#53bf6f"/>
      </g>
      <g transform="translate(32.719 60.32)">
        <path d="M0,29.323S17.591,15.533,25.313,0C31.749,14.582,13.944,26.946,0,29.323Z" transform="translate(2.43 0.865)" fill="#53bf6f"/>
        <path d="M.433,29.464S14.167,19.549,26.784,0C6.584,1.148-2.118,19.069.433,29.464Z" fill="#53bf6f"/>
      </g>
    </g>
    <g transform="translate(449.692 245.093)">
      <path d="M403.287,112.564a1.59,1.59,0,1,0,1.551-1.939A1.778,1.778,0,0,0,403.287,112.564Z" transform="translate(-399.774 -110.625)" fill="#53bf6f"/>
      <path d="M400.528,117.549c-.316,1.191.1,2.307.935,2.494s1.763-.627,2.079-1.817-.1-2.307-.935-2.494S400.844,116.358,400.528,117.549Z" transform="translate(-394.168 -110.625)" fill="#53bf6f"/>
      <path d="M406.774,118.324c.408,1.167,1.4,1.917,2.215,1.676s1.146-1.382.739-2.549-1.4-1.917-2.215-1.676S406.366,117.157,406.774,118.324Z" transform="translate(-406.599 -110.625)" fill="#53bf6f"/>
    </g>
    <g transform="translate(274.751 227.562)">
      <path d="M556.223,209.593Q548.881,210.608,541.3,211a187.7,187.7,0,0,1-63.8-25.795c-23.1-14.783-42.438-34.456-55.409-57.171h0a154.987,154.987,0,0,1-7.426-14.777,156.128,156.128,0,0,0,8.181,14.4,159.3,159.3,0,0,0,31.268,35.458,175.985,175.985,0,0,0,25.347,19.4,183.38,183.38,0,0,0,76.762,27.081h0Z" transform="translate(-386.046 -93.094)" fill="#53bf6f" fill-rule="evenodd"/>
      <g transform="translate(0 22.934)">
        <path d="M584.755,126.975s-17.063-.763-30.529-6.643C560.356,131.536,576.621,131.375,584.755,126.975Z" transform="translate(-554.136 -116.028)" fill="#53bf6f"/>
        <path d="M584.843,125.721s-12.785-.1-31.111-6.295C564.067,111.709,579.5,118.58,584.843,125.721Z" transform="translate(-553.732 -116.028)" fill="#53bf6f"/>
      </g>
      <g transform="translate(11.748)">
        <path d="M573.1,113.67s-10.08-9.506-14.79-20.014C555.206,103.294,565.361,111.851,573.1,113.67Z" transform="translate(-557.734 -93.094)" fill="#53bf6f"/>
        <path d="M571.883,113.219s-7.845-6.853-15.364-20.125C567.654,94.2,572.973,106.315,571.883,113.219Z" transform="translate(-555.445 -93.094)" fill="#53bf6f"/>
      </g>
      <g transform="translate(38.023 5.378)">
        <path d="M530.728,123.761s9.233-12.074,12.221-24.7C548.534,109.809,539.008,120.8,530.728,123.761Z" transform="translate(-528.528 -98.472)" fill="#53bf6f"/>
        <path d="M533.979,123.362s7.3-8.768,12.841-24.89C534.566,100.99,531.247,115.537,533.979,123.362Z" transform="translate(-533.084 -98.472)" fill="#53bf6f"/>
      </g>
    </g>
    <g transform="translate(451.133 409.499)">
      <path d="M431.127,557.822q-6.318-3.528-13.069-6.71a226.78,226.78,0,0,0-67.025-6.352c-26.176,1.522-50.64,7.922-70.387,18.9h0a124.418,124.418,0,0,0-11.925,7.529,130.031,130.031,0,0,1,12.478-6.972,153.179,153.179,0,0,1,40.839-12.909,190.668,190.668,0,0,1,29.833-3.9,223.766,223.766,0,0,1,79.256,10.419h0Z" transform="translate(-244.866 -544.402)" fill="#53bf6f" fill-rule="evenodd"/>
      <g transform="translate(0 8.764)">
        <path d="M454.583,562.318s-15.776-6.008-30.076-7.042C434,549.759,448.731,556.109,454.583,562.318Z" transform="translate(-424.108 -553.166)" fill="#53bf6f"/>
        <path d="M454.982,563.384s-11.654-4.834-30.483-7.51C431.191,565.257,447.628,566.351,454.982,563.384Z" transform="translate(-424.5 -553.166)" fill="#53bf6f"/>
      </g>
      <g transform="translate(2.17 25.375)">
        <path d="M452.812,570.318s-12.492,2.81-20.453,8.382C432.918,570.744,445.145,568.63,452.812,570.318Z" transform="translate(-432.359 -569.777)" fill="#53bf6f"/>
        <path d="M452.553,571.047a77.126,77.126,0,0,0-21.013,8.24C442.047,582.784,451.126,576.313,452.553,571.047Z" transform="translate(-431.281 -569.777)" fill="#53bf6f"/>
      </g>
      <g transform="translate(32.427 23.642)">
        <path d="M409.615,568.265s4.164,12.019,2.458,22.029C420.912,584.89,416.1,573.521,409.615,568.265Z" transform="translate(-403.956 -568.045)" fill="#53bf6f"/>
        <path d="M419.531,568.045s3.568,8.958,2.954,22.4C412.229,583.98,414.306,572.491,419.531,568.045Z" transform="translate(-415.198 -568.045)" fill="#53bf6f"/>
      </g>
    </g>
    <g transform="translate(491.138 244.586)">
      <path d="M385.578,539.907q-7.254-1.458-14.487-3.574a173.319,173.319,0,0,1-49.621-45.009c-15.859-21.383-26.3-46.1-29.624-71.576h0a147.991,147.991,0,0,1-1.214-16.241,145.194,145.194,0,0,0,17.545,59.509,161.033,161.033,0,0,0,16.168,26.432,170.055,170.055,0,0,0,61.233,50.458h0Z" transform="translate(-261.233 -379.489)" fill="#53bf6f" fill-rule="evenodd"/>
      <g transform="translate(0 19.646)">
        <path d="M414.977,416.978s-15.647-6.3-25.952-16.212C390.413,413.245,405.673,418.424,414.977,416.978Z" transform="translate(-389.025 -399.135)" fill="#53bf6f"/>
        <path d="M414.709,415.969s-11.908-4.28-26.631-16.077C400.725,396.069,412.487,407.547,414.709,415.969Z" transform="translate(-387.811 -399.135)" fill="#53bf6f"/>
      </g>
      <g transform="translate(18.917)">
        <path d="M396.06,403.4s-5.736-12.185-6.066-23.547C383.365,387.84,389.539,399.163,396.06,403.4Z" transform="translate(-387.148 -379.489)" fill="#53bf6f"/>
        <path d="M390.348,403.328s-4.675-8.973-6.559-23.839C393.766,384.168,394.041,397.234,390.348,403.328Z" transform="translate(-380.256 -379.489)" fill="#53bf6f"/>
      </g>
      <g transform="translate(35.108 17.635)">
        <path d="M357.757,417.123s13.3-8.256,20.987-19.072C379.8,409.922,366.642,417.069,357.757,417.123Z" transform="translate(-356.692 -397.124)" fill="#53bf6f"/>
        <path d="M358.228,416.323s10.222-5.8,21.641-19.049c-12.425-1.663-21.162,10.842-21.641,19.049Z" transform="translate(-358.228 -397.124)" fill="#53bf6f"/>
      </g>
    </g>
    <g transform="translate(628.551 1.186)">
      <path d="M182.559,298.3a137.691,137.691,0,0,1-2.529-13.6,156.849,156.849,0,0,1,23.7-60.277,169.5,169.5,0,0,1,58.3-54.683h0q7.552-4.266,15.532-7.807-7.773,3.888-15.068,8.474a164.972,164.972,0,0,0-36.368,31.072,165.409,165.409,0,0,0-19.344,24.561c-14.053,21.844-22.7,46.789-24.225,72.257h0Z" transform="translate(-180.03 -136.09)" fill="#53bf6f" fill-rule="evenodd"/>
      <g transform="translate(78.88)">
        <path d="M193.526,164.692s-.319-15.708,5.157-28.46C186.94,142.61,188.207,157.524,193.526,164.692Z" transform="translate(-189.621 -136.09)" fill="#53bf6f"/>
        <path d="M184.228,165.061s-.753-11.738,4.74-28.971C198.035,145.056,191.617,159.682,184.228,165.061Z" transform="translate(-178.93 -136.09)" fill="#53bf6f"/>
      </g>
      <g transform="translate(96.989 9.264)">
        <path d="M159.856,160.581s9.636-9.888,20.719-14.916C169.911,143.469,161.311,153.362,159.856,160.581Z" transform="translate(-159.856 -145.354)" fill="#53bf6f"/>
        <path d="M159.212,161.54s6.907-7.659,20.8-15.45C179.566,156.382,166.775,162.077,159.212,161.54Z" transform="translate(-158.65 -145.354)" fill="#53bf6f"/>
      </g>
      <g transform="translate(86.92 34.718)">
        <path d="M163.029,173.3s13.718,7.662,27.615,9.556C179.36,188.7,166.8,180.7,163.029,173.3Z" transform="translate(-163.029 -170.808)" fill="#53bf6f"/>
        <path d="M162.435,172.072s10,6.114,27.865,10.112C186.745,171.108,170.74,169.039,162.435,172.072Z" transform="translate(-162.09 -170.808)" fill="#53bf6f"/>
      </g>
    </g>
    <g transform="translate(586.264 165.719)">
      <path d="M312.977,302.487a1.76,1.76,0,0,0,1.442,2.009,1.8,1.8,0,0,0,1.656-1.864,1.76,1.76,0,0,0-1.442-2.009A1.8,1.8,0,0,0,312.977,302.487Z" transform="translate(-309.201 -300.622)" fill="#53bf6f"/>
      <path d="M310.536,307.6c-.382,1.174-.026,2.309.8,2.535s1.8-.543,2.177-1.718.026-2.309-.8-2.535S310.917,306.425,310.536,307.6Z" transform="translate(-304.192 -300.622)" fill="#53bf6f"/>
      <path d="M316.73,308.083c.342,1.184,1.291,1.98,2.119,1.778s1.221-1.327.879-2.511-1.291-1.98-2.119-1.778S316.387,306.9,316.73,308.083Z" transform="translate(-316.606 -300.622)" fill="#53bf6f"/>
    </g>
    <g transform="translate(742.547 113.769)">
      <path d="M160.659,251.414a2.015,2.015,0,0,0,2.608.2c.564-.593.31-1.645-.566-2.35a2.015,2.015,0,0,0-2.608-.2C159.529,249.657,159.783,250.709,160.659,251.414Z" transform="translate(-159.793 -248.672)" fill="#53bf6f"/>
      <path d="M154.209,252.724c.767,1,1.956,1.448,2.657.994s.647-1.633-.119-2.636-1.956-1.448-2.657-.994S153.442,251.722,154.209,252.724Z" transform="translate(-147.387 -248.672)" fill="#53bf6f"/>
      <path d="M158.953,257.517c1.223.486,2.49.293,2.83-.43s-.377-1.7-1.6-2.189-2.49-.293-2.83.43S157.729,257.031,158.953,257.517Z" transform="translate(-155.568 -248.672)" fill="#53bf6f"/>
    </g>
    <g transform="translate(726.329 357.132)">
      <path d="M170.689,492.96a1.644,1.644,0,0,0-.011,2.407,1.988,1.988,0,0,0,2.5-.707,1.644,1.644,0,0,0,.011-2.407A1.988,1.988,0,0,0,170.689,492.96Z" transform="translate(-164.083 -492.036)" fill="#53bf6f"/>
      <path d="M172.143,498.523c-1.025.783-1.413,1.909-.866,2.515s1.822.463,2.847-.32,1.413-1.909.866-2.515S173.168,497.741,172.143,498.523Z" transform="translate(-166.481 -492.036)" fill="#53bf6f"/>
      <path d="M176.656,495.756c-.429,1.16-.119,2.307.692,2.56s1.816-.482,2.245-1.642.119-2.307-.692-2.56S177.084,494.6,176.656,495.756Z" transform="translate(-176.463 -492.036)" fill="#53bf6f"/>
    </g>
    <g transform="translate(262.882 104.406)">
      <path d="M638.694,241.695a1.909,1.909,0,0,0,2.194,1.313,1.674,1.674,0,0,0,.71-2.317,1.909,1.909,0,0,0-2.194-1.313A1.674,1.674,0,0,0,638.694,241.695Z" transform="translate(-637.059 -239.309)" fill="#53bf6f"/>
      <path d="M633.945,245.44c.16,1.217.979,2.126,1.829,2.032s1.41-1.157,1.251-2.374-.979-2.126-1.829-2.032S633.785,244.223,633.945,245.44Z" transform="translate(-627.737 -239.309)" fill="#53bf6f"/>
      <path d="M640.087,248.167c.828.96,2.043,1.342,2.715.852s.544-1.665-.284-2.625-2.043-1.342-2.715-.852S639.259,247.207,640.087,248.167Z" transform="translate(-639.373 -239.309)" fill="#53bf6f"/>
    </g>
    <g transform="translate(149.682 261.98)">
      <path d="M749.735,398.766a1.764,1.764,0,0,0,1.467,1.994,1.792,1.792,0,0,0,1.633-1.881,1.764,1.764,0,0,0-1.467-1.994A1.792,1.792,0,0,0,749.735,398.766Z" transform="translate(-746.137 -396.884)" fill="#53bf6f"/>
      <path d="M747.223,403.851a2.2,2.2,0,0,0,1.162,2.538c.824.217,1.638-.568,1.82-1.753a2.2,2.2,0,0,0-1.162-2.538C748.219,401.881,747.4,402.666,747.223,403.851Z" transform="translate(-740.994 -396.884)" fill="#53bf6f"/>
      <path d="M753.429,404.4c.118,1.172.883,1.951,1.708,1.74a2.283,2.283,0,0,0,1.28-2.5c-.118-1.172-.883-1.951-1.708-1.74A2.283,2.283,0,0,0,753.429,404.4Z" transform="translate(-753.414 -396.884)" fill="#53bf6f"/>
    </g>
    <g transform="translate(15.451 272.11)">
      <path d="M882.47,408.413a1.676,1.676,0,0,0,.739,2.309,1.906,1.906,0,0,0,2.177-1.336,1.676,1.676,0,0,0-.739-2.309A1.905,1.905,0,0,0,882.47,408.413Z" transform="translate(-877.192 -407.013)" fill="#53bf6f"/>
      <path d="M881.978,413.993c-.739,1.02-.76,2.2-.047,2.638s1.89-.036,2.629-1.056.76-2.2.047-2.638S882.717,412.973,881.978,413.993Z" transform="translate(-875.874 -407.013)" fill="#53bf6f"/>
      <path d="M887.561,412.78c-.05,1.225.6,2.241,1.46,2.271s1.59-.94,1.64-2.164-.6-2.241-1.46-2.271S887.611,411.556,887.561,412.78Z" transform="translate(-887.558 -407.013)" fill="#53bf6f"/>
    </g>
    <g transform="translate(305.471 397.457)">
      <path d="M594.088,534.315a1.59,1.59,0,1,0,1.527-1.955A1.782,1.782,0,0,0,594.088,534.315Z" transform="translate(-590.634 -532.36)" fill="#53bf6f"/>
      <path d="M591.261,539.27c-.3,1.194.13,2.306.965,2.484s1.755-.645,2.057-1.839-.13-2.306-.965-2.484S591.562,538.077,591.261,539.27Z" transform="translate(-584.899 -532.36)" fill="#53bf6f"/>
      <path d="M597.515,540.109c.422,1.163,1.422,1.9,2.235,1.653s1.129-1.394.708-2.557-1.423-1.9-2.235-1.653S597.093,538.947,597.515,540.109Z" transform="translate(-597.328 -532.36)" fill="#53bf6f"/>
    </g>
    <g transform="translate(76.211 500.968)">
      <path d="M826.1,643.486a1.843,1.843,0,0,0-1.9-1.658,1.72,1.72,0,0,0-1.156,2.159,1.843,1.843,0,0,0,1.9,1.658A1.72,1.72,0,0,0,826.1,643.486Z" transform="translate(-819.24 -635.872)" fill="#53bf6f"/>
      <path d="M829.9,639.038c.084-1.223-.542-2.255-1.4-2.3s-1.616.9-1.7,2.125.542,2.255,1.4,2.3S829.813,640.261,829.9,639.038Z" transform="translate(-826.793 -635.872)" fill="#53bf6f"/>
      <path d="M823.6,637.275c-.624-1.083-1.744-1.661-2.5-1.292s-.864,1.546-.24,2.629,1.744,1.661,2.5,1.292S824.225,638.358,823.6,637.275Z" transform="translate(-814.557 -635.872)" fill="#53bf6f"/>
    </g>
    <g transform="translate(547.858 498.738)">
      <path d="M355.9,641.476a1.745,1.745,0,0,0-1.34-2.068,1.813,1.813,0,0,0-1.748,1.792,1.745,1.745,0,0,0,1.34,2.068A1.813,1.813,0,0,0,355.9,641.476Z" transform="translate(-350.463 -633.642)" fill="#53bf6f"/>
      <path d="M358.054,636.26c.44-1.157.141-2.305-.668-2.565s-1.821.467-2.261,1.624-.141,2.305.668,2.566S357.614,637.417,358.054,636.26Z" transform="translate(-354.923 -633.642)" fill="#53bf6f"/>
      <path d="M351.919,636.04c-.283-1.2-1.191-2.033-2.028-1.866s-1.286,1.274-1,2.471,1.191,2.033,2.028,1.866S352.2,637.237,351.919,636.04Z" transform="translate(-342.55 -633.642)" fill="#53bf6f"/>
    </g>
    <g transform="translate(715.88 530.901)">
      <path d="M183.207,667.624a1.749,1.749,0,0,0,1.373,2.049,1.808,1.808,0,0,0,1.719-1.815,1.749,1.749,0,0,0-1.373-2.049A1.808,1.808,0,0,0,183.207,667.624Z" transform="translate(-179.27 -665.805)" fill="#53bf6f"/>
      <path d="M180.962,672.807c-.421,1.163-.1,2.307.709,2.556s1.813-.492,2.234-1.655.1-2.307-.709-2.556S181.383,671.644,180.962,672.807Z" transform="translate(-174.632 -665.805)" fill="#53bf6f"/>
      <path d="M187.117,673.113c.3,1.194,1.224,2.016,2.058,1.838s1.266-1.291.963-2.485-1.224-2.016-2.058-1.838S186.815,671.919,187.117,673.113Z" transform="translate(-187.02 -665.805)" fill="#53bf6f"/>
    </g>
    <g transform="translate(571.597 463.673)">
      <path d="M292.487,702.3a75.69,75.69,0,0,0,8.933-.655,73.613,73.613,0,0,0,23.687-24.025h0a65.274,65.274,0,0,0,9.244-38.175h0a63.659,63.659,0,0,0-3.277-15.98A62.524,62.524,0,0,1,332.8,639.49a61.859,61.859,0,0,1-3.039,17.726,63.525,63.525,0,0,1-7.725,18.72,71.182,71.182,0,0,1-29.55,26.36h0Z" transform="translate(-292.487 -598.576)" fill="#53bf6f" fill-rule="evenodd"/>
      <g transform="translate(31.598 64.713)">
        <path d="M270.253,684.647s19-7.335,31.519-19.22c-1.7,15.258-20.23,21.224-31.519,19.22Z" transform="translate(-269.106 -663.289)" fill="#53bf6f"/>
        <path d="M270.577,683.386s14.457-4.948,32.342-19.037C287.579,659.346,273.287,673.12,270.577,683.386Z" transform="translate(-270.577 -663.289)" fill="#53bf6f"/>
      </g>
      <g transform="translate(43.537 23.74)">
        <path d="M266.231,647.158s15.028-10.6,23.194-23.88C291.676,637.272,276.729,646.546,266.231,647.158Z" transform="translate(-264.903 -622.316)" fill="#53bf6f"/>
        <path d="M267.012,646.276s11.592-7.5,23.969-23.892C276.153,621.179,266.883,636.527,267.012,646.276Z" transform="translate(-267.011 -622.316)" fill="#53bf6f"/>
      </g>
      <g transform="translate(33.847)">
        <path d="M289.525,622.975s2.42-13.091-.2-24.2C297.832,605.087,294.764,617.435,289.525,622.975Z" transform="translate(-283.29 -598.576)" fill="#53bf6f"/>
        <path d="M299.621,623.166s2.22-9.739.205-24.59C291.344,605.3,294.457,618.055,299.621,623.166Z" transform="translate(-294.55 -598.576)" fill="#53bf6f"/>
      </g>
      <g transform="translate(15.098 25.953)">
        <path d="M319.42,650.875s-14.11-11.653-21.1-25.492C294.807,639.182,308.955,649.509,319.42,650.875Z" transform="translate(-297.771 -624.53)" fill="#53bf6f"/>
        <path d="M318.154,650.091s-10.945-8.314-21.877-25.56C311.245,624.4,319.158,640.374,318.154,650.091Z" transform="translate(-295.097 -624.53)" fill="#53bf6f"/>
      </g>
      <g transform="translate(0.425 52.824)">
        <path d="M334.093,688.078s-10-19.165-10.21-36.245C311.571,662.763,322.4,680.7,334.093,688.078Z" transform="translate(-318.439 -651.4)" fill="#53bf6f"/>
        <path d="M323.125,688.16s-8.182-14.185-11.1-36.76c17.958,8.583,18.011,28.209,11.1,36.76Z" transform="translate(-305.327 -651.4)" fill="#53bf6f"/>
      </g>
    </g>
    <g transform="translate(218.765 493.297)">
      <path d="M664.361,690.528a66.18,66.18,0,0,1-7.264,3.235,75.746,75.746,0,0,1-30.526-8.326h0A65.113,65.113,0,0,1,600.1,660.344h0a56.838,56.838,0,0,1-5.534-13.49,57.412,57.412,0,0,0,6.761,12.879,61.028,61.028,0,0,0,11.318,12.176A65.052,65.052,0,0,0,628.1,682.88a72.689,72.689,0,0,0,36.256,7.648h0Z" transform="translate(-571.58 -628.201)" fill="#53bf6f" fill-rule="evenodd"/>
      <g transform="translate(23.978 54.245)">
        <path d="M663.078,690.823s-18.451,2.374-34.175-1.409C637.936,700.275,655.33,697.06,663.078,690.823Z" transform="translate(-628.609 -682.446)" fill="#53bf6f"/>
        <path d="M663.372,689.388s-13.721,2.288-34.722-.927C638.027,678.257,656.08,682.733,663.372,689.388Z" transform="translate(-628.649 -682.446)" fill="#53bf6f"/>
      </g>
      <g transform="translate(0 27.113)">
        <path d="M687.326,667.451s-17.019-1.759-30.07-8.422c5.326,11.555,21.614,12.344,30.07,8.422Z" transform="translate(-657.233 -655.314)" fill="#53bf6f"/>
        <path d="M687.35,666.228s-12.786-.844-30.678-8.108C667.571,651.011,682.523,658.779,687.35,666.228Z" transform="translate(-656.672 -655.314)" fill="#53bf6f"/>
      </g>
      <g transform="translate(8.737)">
        <path d="M678.612,647.108s-8.494-8.918-12.076-18.438C663.124,637.011,671.746,645.095,678.612,647.108Z" transform="translate(-665.765 -628.201)" fill="#53bf6f"/>
        <path d="M677.075,646.767s-6.645-6.459-12.587-18.566C674.47,629.76,678.5,640.733,677.075,646.767Z" transform="translate(-663.228 -628.201)" fill="#53bf6f"/>
      </g>
      <g transform="translate(32.273 10.142)">
        <path d="M640.467,666.877s5.061-14.734,3.493-28.153C653.659,647.724,647.9,661.468,640.467,666.877Z" transform="translate(-634.467 -638.343)" fill="#53bf6f"/>
        <path d="M651.008,666.871s4.292-10.879,4.06-28.528C643.384,644.495,645.318,659.921,651.008,666.871Z" transform="translate(-646.498 -638.343)" fill="#53bf6f"/>
      </g>
      <g transform="translate(57.609 26.502)">
        <path d="M621.58,686.461s-1.926-18.715-10.4-31.758C626.265,657.849,626.932,675.98,621.58,686.461Z" transform="translate(-606.073 -654.703)" fill="#53bf6f"/>
        <path d="M629.741,687.419s-.819-14.178-9.968-32.518C610.174,668.915,620.052,683.823,629.741,687.419Z" transform="translate(-615.856 -654.703)" fill="#53bf6f"/>
      </g>
    </g>
    <g transform="translate(84.803 225.672) rotate(170.181)">
      <path d="M0,0A84.254,84.254,0,0,1,10.412,3.844,78.76,78.76,0,0,1,32.618,43.292a73.841,73.841,0,0,1-8.448,52.4,77.867,77.867,0,0,1-9.922,13.449A76.063,76.063,0,0,0,23.107,95.2a71.564,71.564,0,0,0,7.2-27.449,69.875,69.875,0,0,0-1.146-23.742C25.34,26.969,14.875,11.083,0,0H0Z" transform="translate(5.871 0)" fill="#53bf6f" fill-rule="evenodd"/>
      <g transform="translate(39.809 51.022)">
        <path d="M0,0S14.132,13.79,20.337,29.323C25.507,14.741,11.2,2.378,0,0Z" transform="translate(1.952 0)" fill="#53bf6f"/>
        <path d="M.348,0s11.034,9.914,21.17,29.464C5.289,28.315-1.7,10.4.348,0Z" transform="translate(0 0.725)" fill="#53bf6f"/>
      </g>
      <g transform="translate(32.553 89.811)">
        <path d="M0,0S9.065,15.291,10.673,30.479C18.9,18.526,9.326,4.474,0,0Z" transform="translate(3.757 0)" fill="#53bf6f"/>
        <path d="M2.156,0S9.446,11.177,13.531,30.779C-.554,26.349-2.261,8.863,2.156,0Z" transform="translate(0 0.311)" fill="#53bf6f"/>
      </g>
      <g transform="translate(8.243 109.525)">
        <path d="M10.851,0S7.291,12.869,0,22.045C10.558,19.45,13.2,7.018,10.851,0Z" transform="translate(2.181 0.606)" fill="#53bf6f"/>
        <path d="M12.054,0S9.79,9.73,1.4,22.554C-3.387,13.242,5.081,2.746,12.054,0Z" transform="translate(0 0)" fill="#53bf6f"/>
      </g>
      <g transform="translate(0 82.63)">
        <path d="M30.529.755S12.493,6.144,0,16.187C2.875,2.264,20.361-1.9,30.529.755Z" transform="translate(0 0)" fill="#53bf6f"/>
        <path d="M31.268,0S17.6,3.518,0,15.205C13.623,20.91,27.9,9.256,31.268,0Z" transform="translate(0.203 1.997)" fill="#53bf6f"/>
      </g>
      <g transform="translate(30.469 71.859) rotate(180)">
        <path d="M0,29.323S17.591,15.533,25.313,0C31.749,14.582,13.944,26.946,0,29.323Z" transform="translate(2.43 0.865)" fill="#53bf6f"/>
        <path d="M.433,29.464S14.167,19.549,26.784,0C6.584,1.149-2.118,19.069.433,29.464Z" transform="translate(0 0)" fill="#53bf6f"/>
      </g>
    </g>
    <path d="M-51.124,209.159h-2.323v2.12h2.323Z" transform="translate(1010.686 -134.904)" fill="#53bf6f"/>
    <rect width="2.341" height="2.175" transform="translate(956.127 76.722) rotate(-161.456)" fill="#53bf6f"/>
    <path d="M-77.027,213.512a.665.665,0,0,0,.958.448,1.045,1.045,0,0,0,.35-1.226.665.665,0,0,0-.958-.448,1.045,1.045,0,0,0-.35,1.226Z" transform="translate(1058.861 -134.904)" fill="#53bf6f"/>
    <path d="M-76.774,214.738A1.078,1.078,0,0,0-76.355,216a.718.718,0,0,0,.994-.533,1.078,1.078,0,0,0-.419-1.266.718.718,0,0,0-.994.533Z" transform="translate(1058.251 -134.904)" fill="#53bf6f"/>
    <path d="M-75.181,212.931a1.521,1.521,0,0,0,.354,1.626c.4.305.9.073,1.106-.52a1.521,1.521,0,0,0-.354-1.626C-74.478,212.106-74.973,212.338-75.181,212.931Z" transform="translate(1055.017 -134.904)" fill="#53bf6f"/>
    <path d="M-76.25,217.65v0Z" transform="translate(1058.615 -134.904)" fill="#53bf6f"/>
    <path d="M-74.634,216.777a.559.559,0,0,0,.989.009,1.373,1.373,0,0,0,.007-1.443.559.559,0,0,0-.989-.009,1.373,1.373,0,0,0-.007,1.443Z" transform="translate(1054.388 -134.904)" fill="#53bf6f"/>
    <path d="M-73.121,213.527c.163.454.533.619.828.369a1.241,1.241,0,0,0,.239-1.276c-.163-.454-.533-.619-.828-.369a1.241,1.241,0,0,0-.239,1.276Z" transform="translate(1051.29 -134.904)" fill="#53bf6f"/>
    <path d="M-73.032,216.9c.1.5.45.783.773.622a1.133,1.133,0,0,0,.4-1.206c-.1-.5-.45-.783-.773-.622a1.133,1.133,0,0,0-.4,1.206Z" transform="translate(1051.008 -134.904)" fill="#53bf6f"/>
    <path d="M-72.558,214.177c-.221.028-.386.315-.367.641s.214.568.435.541.386-.315.367-.641S-72.336,214.149-72.558,214.177Z" transform="translate(1051.163 -134.904)" fill="#53bf6f"/>
    <rect width="4" height="4" transform="translate(952.509 69.61)" fill="#53bf6f"/>
    <path d="M-55.38,200.259a1.239,1.239,0,0,0,.288,1.325c.329.249.732.059.9-.424a1.239,1.239,0,0,0-.288-1.325C-54.807,199.586-55.211,199.776-55.38,200.259Z" transform="translate(1015.686 -134.904)" fill="#53bf6f"/>
    <rect width="4.532" height="4.509" transform="translate(952.217 64.125)" fill="#53bf6f"/>
    <g transform="translate(964.717 64.208)">
      <path d="M-62.344,201.936c.436,0,.79-.235.79-.524s-.353-.525-.79-.525-.79.235-.79.524S-62.78,201.936-62.344,201.936Z" transform="translate(66.085 -199.111)" fill="#53bf6f"/>
      <path d="M-59.645,200.592c.454.316.9.3.992-.043a1.321,1.321,0,0,0-.654-1.188c-.454-.316-.9-.3-.992.043A1.321,1.321,0,0,0-59.645,200.592Z" transform="translate(60.35 -199.111)" fill="#53bf6f"/>
      <path d="M-60.875,200.758a.642.642,0,0,0-.564.674.576.576,0,0,0,.619.569.642.642,0,0,0,.564-.674A.576.576,0,0,0-60.875,200.758Z" transform="translate(63.093 -199.111)" fill="#53bf6f"/>
      <path d="M-59.392,201.89c.436,0,.79-.235.79-.524s-.353-.525-.79-.525-.79.235-.79.524S-59.828,201.89-59.392,201.89Z" transform="translate(60.181 -199.111)" fill="#53bf6f"/>
      <path d="M-61.392,199.9c0,.436.235.79.524.79s.525-.353.525-.79-.235-.79-.524-.79S-61.392,199.465-61.392,199.9Z" transform="translate(63.133 -199.111)" fill="#53bf6f"/>
      <path d="M-61.368,202.829c0,.436.235.79.524.79s.525-.353.525-.79-.235-.79-.524-.79S-61.368,202.393-61.368,202.829Z" transform="translate(63.087 -199.111)" fill="#53bf6f"/>
      <path d="M-62.421,203.392c.454.316.9.3.992-.043a1.321,1.321,0,0,0-.654-1.188c-.454-.316-.9-.3-.992.043A1.321,1.321,0,0,0-62.421,203.392Z" transform="translate(65.903 -199.111)" fill="#53bf6f"/>
      <path d="M-62.868,199.831c-.316.454-.3.9.043.992a1.321,1.321,0,0,0,1.188-.654c.316-.454.3-.9-.043-.992A1.321,1.321,0,0,0-62.868,199.831Z" transform="translate(65.903 -199.111)" fill="#53bf6f"/>
      <path d="M-60.115,202.561c-.316.454-.3.9.043.992a1.321,1.321,0,0,0,1.188-.654c.316-.454.3-.9-.043-.992A1.321,1.321,0,0,0-60.115,202.561Z" transform="translate(60.397 -199.111)" fill="#53bf6f"/>
    </g>
    <rect width="5.734" height="5.737" transform="translate(984.518 67.224)" fill="#53bf6f"/>
    <g transform="translate(964.122 71.142)">
      <path d="M-124.442,997.815a.96.96,0,0,0,1.206.448.858.858,0,0,0,.1-1.226.96.96,0,0,0-1.206-.448A.858.858,0,0,0-124.442,997.815Z" transform="translate(128.392 -996.437)" fill="#53bf6f"/>
      <path d="M-124.188,999.04a.891.891,0,0,0,.183,1.266,1,1,0,0,0,1.229-.533.891.891,0,0,0-.183-1.266A1,1,0,0,0-124.188,999.04Z" transform="translate(127.782 -996.437)" fill="#53bf6f"/>
      <path d="M-122.6,997.234a1.253,1.253,0,0,0,.046,1.626c.4.305,1.036.073,1.414-.52a1.253,1.253,0,0,0-.046-1.626C-121.584,996.409-122.217,996.642-122.6,997.234Z" transform="translate(124.547 -996.437)" fill="#53bf6f"/>
      <path d="M-123.665,1001.953a.82.82,0,0,0,.9-.708.82.82,0,0,0-.9-.709.82.82,0,0,0-.9.708A.82.82,0,0,0-123.665,1001.953Z" transform="translate(128.146 -996.437)" fill="#53bf6f"/>
      <path d="M-122.049,1001.081a.952.952,0,0,0,1.391.01,1.14,1.14,0,0,0-.4-1.443.952.952,0,0,0-1.391-.01A1.14,1.14,0,0,0-122.049,1001.081Z" transform="translate(123.919 -996.437)" fill="#53bf6f"/>
      <path d="M-120.536,997.83c.3.454.774.619,1.069.369a1.021,1.021,0,0,0,0-1.276c-.3-.454-.774-.619-1.069-.369A1.021,1.021,0,0,0-120.536,997.83Z" transform="translate(120.821 -996.437)" fill="#53bf6f"/>
      <path d="M-120.447,1001.2c.188.5.6.783.926.622a.978.978,0,0,0,.246-1.206c-.188-.5-.6-.783-.926-.622A.978.978,0,0,0-120.447,1001.2Z" transform="translate(120.539 -996.437)" fill="#53bf6f"/>
      <path d="M-119.972,998.479a.684.684,0,0,0-.7.641.666.666,0,0,0,.767.541.684.684,0,0,0,.7-.641A.666.666,0,0,0-119.972,998.479Z" transform="translate(120.694 -996.437)" fill="#53bf6f"/>
    </g>
  </g>
  <g transform="matrix(0.5, -0.8660254037844388, 0.8660254037844388, 0.5, 1087.592124512012, 717.2670521536202)">
    <rect width="15.038" height="9.411" transform="translate(-97.865 209.549)" fill="#247f79"/>
    <rect width="4.6" height="4.6" transform="translate(-56.373 198.715)" fill="#247f79"/>
    <path d="M106.389,689.27l7.828,6.222c50.606-64.232,115.44-117.186,188.01-155.3s153.1-61.5,235.008-66.732h0c28.245-1.808,56.715-1.6,85.218-2.977,28.3-1.355,56.817-4.36,84.151-12.465,27.44-8.128,53.731-21.7,74.045-42.01s34.146-47.832,35.063-76.6c.78-24.989-8.7-50.416-26.745-67.672h0a79.25,79.25,0,0,0-32.034-18.691,73.546,73.546,0,0,0-36.97-1.3,68.6,68.6,0,0,0-32.47,17.494h0a64.245,64.245,0,0,0-17.961,32.072h0A60.393,60.393,0,0,0,672.9,337.77,56.956,56.956,0,0,0,697.263,364.9a54.733,54.733,0,0,0,56.656-2.084,54.484,54.484,0,0,1-56.411,1.648,56.3,56.3,0,0,1-23.859-27.015,59.435,59.435,0,0,1-3.024-35.9,62.977,62.977,0,0,1,17.861-31.286h0a67.011,67.011,0,0,1,31.856-16.825,71.651,71.651,0,0,1,36,1.57,77.062,77.062,0,0,1,30.986,18.427c17.386,16.861,26.345,41.7,25.4,65.868-1.067,27.857-14.811,54.476-34.687,74.077C758.144,433,732.32,446,705.366,453.781c-26.872,7.749-55.021,10.448-83.139,11.58-28.324,1.129-56.8.685-85.34,2.265h0c-82.815,4.6-164.466,27.533-238.313,65.534s-140.1,91.161-192.185,156.11h0Z" fill="#247f79" fill-rule="evenodd"/>
    <path d="M683.739,462.655a87.421,87.421,0,0,1,28.8-3.6,85.629,85.629,0,0,1,65.219,17.425,86.542,86.542,0,0,1,27.99,39.017h0A85.888,85.888,0,0,1,786.3,604.026a85.278,85.278,0,0,1-40.062,23.024,83.444,83.444,0,0,1-84.469-27.464h0c-11.266-13.588-18.092-31.2-17.22-48.719a59.384,59.384,0,0,1,6.862-25.17,54.74,54.74,0,0,1,6.7-9.768,51.939,51.939,0,0,1,10.554-9.716,48.929,48.929,0,0,1,24.67-8.6,45.347,45.347,0,0,1,25.615,6.091h0a42.408,42.408,0,0,1,17.5,20,39.973,39.973,0,0,1,1.363,26.844,38.894,38.894,0,0,1-9.687,16.028,39.12,39.12,0,0,0,10.1-15.89,40.732,40.732,0,0,0-.774-27.374,43.8,43.8,0,0,0-17.6-21.072h0a47.382,47.382,0,0,0-26.611-6.988,51.6,51.6,0,0,0-26.23,8.455,56.657,56.657,0,0,0-18.6,20.379,62.828,62.828,0,0,0-7.371,26.61c-.941,18.528,6.082,37,17.859,51.266a87.394,87.394,0,0,0,39.936,27.249,88.415,88.415,0,0,0,48.386,1.817,89.454,89.454,0,0,0,42.135-24A90.512,90.512,0,0,0,812.8,564.49h0a90.651,90.651,0,0,0-32.033-91.831h0a90.914,90.914,0,0,0-97.026-10Z" fill="#247f79" fill-rule="evenodd"/>
    <path d="M190.451,605.923l5,6.09A226.267,226.267,0,0,0,268.2,373.422c-5.887-19.911-14.71-39.229-27.714-55.617s-30.463-29.653-50.561-35.914c-20.122-6.263-42.862-4.916-61.3,5.426a65.387,65.387,0,0,0-22.936,21.46,59.025,59.025,0,0,0-9.4,29.934,55.253,55.253,0,0,0,10.885,34.541,53.068,53.068,0,0,0,30.237,19.725h0a51.035,51.035,0,0,0,35.644-4.9h0a49.14,49.14,0,0,0,22.882-27.593,48.248,48.248,0,0,0-3.956-38.231,47.521,47.521,0,0,1-19.333,65.077h0a49.985,49.985,0,0,1-34.95,4.421,51.61,51.61,0,0,1-29.185-19.5A53.388,53.388,0,0,1,98.364,338.78h0a56.779,56.779,0,0,1,9.365-28.681,62.79,62.79,0,0,1,22.251-20.35c17.758-9.75,39.681-10.719,58.9-4.53,19.243,6.194,35.9,19.222,48.315,35.182S257.94,355.27,263.5,374.795h0a221.922,221.922,0,0,1-1.884,126.811,220.981,220.981,0,0,1-71.165,104.318h0Z" fill="#247f79" fill-rule="evenodd"/>
    <path d="M273.891,405.615q1.907,5.655,3.671,11.416a462.69,462.69,0,0,0,1.561-130.373c-1.561-11.979-3.558-23.789-4.7-35.592-1.119-11.706-1.419-23.463.421-34.868a92.293,92.293,0,0,1,21.227-45.767h0a86.507,86.507,0,0,1,42.673-26.756,81.443,81.443,0,0,1,50.219,2.735,76.977,76.977,0,0,1,38.2,32.617,75.907,75.907,0,0,1,5.6,62.738,76.981,76.981,0,0,1-44.326,45.126h0c-12.915,4.924-27.358,6.258-40.679,2.734-13.3-3.515-25.476-12.03-32.437-23.873a46.092,46.092,0,0,1-6.263-19.473h0a42.38,42.38,0,0,1,3.213-20.157,39.237,39.237,0,0,1,12.6-16.008,36.544,36.544,0,0,1,19.063-7.083c8.088-.547,16.508,1.886,22.573,7.223a26.254,26.254,0,0,1,7.012,9.763,23.845,23.845,0,0,1,1.617,11.87,22.763,22.763,0,0,1-3.017,8.793,22.857,22.857,0,0,0,3.179-8.773,24.122,24.122,0,0,0-1.427-12.033,26.746,26.746,0,0,0-6.967-10.07,32.072,32.072,0,0,0-23.037-7.817h0a37.77,37.77,0,0,0-19.839,6.974h0A40.836,40.836,0,0,0,310.609,225.4a44.347,44.347,0,0,0-3.739,21.053,48.419,48.419,0,0,0,6.23,20.6c7.087,12.481,19.595,21.78,33.805,25.759,13.822,3.865,29.024,2.887,42.93-2.212a79.669,79.669,0,0,0,25.014-135.154,82.9,82.9,0,0,0-23.707-14.513,85.463,85.463,0,0,0-26.3-5.856,87.769,87.769,0,0,0-27.642,2.673A90.584,90.584,0,0,0,312.5,148.4a93.129,93.129,0,0,0-21.108,17.926,96.259,96.259,0,0,0-14.593,22.5,99.131,99.131,0,0,0-8.075,26.367c-1.877,11.928-1.627,24.207-.4,36.438,1.184,11.86,3.223,23.728,4.848,35.779A462.849,462.849,0,0,1,277.3,344.7a463.486,463.486,0,0,1-3.409,60.917Z" fill="#247f79" fill-rule="evenodd"/>
    <path d="M334.045,520.912a121.466,121.466,0,0,1,28.086-9.708,121.008,121.008,0,0,1,155.593,60h0a122.1,122.1,0,0,1,10.459,69.208c-1.952,13.473-6.208,26.692-13.549,38h0c-7.332,11.294-17.823,20.721-30.248,25.59-12.393,4.862-26.843,5.079-38.8-.518h0a41.812,41.812,0,0,1-15.392-12.172h0a37.191,37.191,0,0,1,6.931-52.554,40.622,40.622,0,0,1,20.8-8.481c7.255-.743,14.856.5,21.1,4.283h0c6.226,3.773,11.081,10.219,12.17,17.5a21.731,21.731,0,0,1-5.43,17.85,20.247,20.247,0,0,1-8.126,5.278,19.284,19.284,0,0,1-24.006-10.465,20.048,20.048,0,0,1,1.386-18.456,19.935,19.935,0,0,0,12.7,30.528,20.516,20.516,0,0,0,10.246-.58,21.438,21.438,0,0,0,8.729-5.392,23.249,23.249,0,0,0,6.24-18.989,27.5,27.5,0,0,0-12.693-19.206,36.664,36.664,0,0,0-22.553-5.151,43.265,43.265,0,0,0-29.248,14.878,41.046,41.046,0,0,0-9.357,31.476h0a41.443,41.443,0,0,0,8.265,19.671,45.431,45.431,0,0,0,16.682,13.3c13,6.077,28.441,5.957,41.754.756,13.3-5.2,24.446-15.086,32.195-26.983s12.26-25.635,14.308-39.577a126.371,126.371,0,0,0-10.564-71.7h0a125.9,125.9,0,0,0-187.68-48.4Z" fill="#247f79" fill-rule="evenodd"/>
    <g transform="translate(34.802 174.903)">
      <path d="M489.2,164.49a71.841,71.841,0,0,0,7.876-3.93,67.271,67.271,0,0,0,11.059-30.795h0a65.137,65.137,0,0,0-8.382-38.344h0a68.68,68.68,0,0,0-10.041-13.386,66.532,66.532,0,0,1,8.646,14.008,62.566,62.566,0,0,1,5.038,17.337,61.47,61.47,0,0,1,1.193,19.993A64.788,64.788,0,0,1,489.2,164.489h0Z" fill="#247f79" fill-rule="evenodd"/>
      <path d="M511.347,136.144s14.132-13.79,20.337-29.323C536.854,121.4,522.549,133.766,511.347,136.144Z" fill="#247f79"/>
      <path d="M509.743,135.419s11.034-9.914,21.17-29.464C514.684,107.1,507.693,125.024,509.743,135.419Z" fill="#247f79"/>
      <path d="M505.9,97.355s9.065-15.291,10.673-30.479C524.8,78.829,515.222,92.881,505.9,97.355Z" fill="#247f79"/>
      <path d="M504.294,97.044s7.291-11.177,11.375-30.779C501.584,70.694,499.877,88.18,504.294,97.044Z" fill="#247f79"/>
      <path d="M490.862,77.032s-3.56-12.869-10.851-22.045C490.569,57.582,493.208,70.014,490.862,77.032Z" fill="#247f79"/>
      <path d="M489.882,77.643s-2.265-9.73-10.654-22.554C474.44,64.4,482.908,74.9,489.882,77.643Z" fill="#247f79"/>
      <path d="M500.114,103.781s-18.036-5.39-30.529-15.432C472.46,102.272,489.946,106.436,500.114,103.781Z" fill="#247f79"/>
      <path d="M501.056,102.539s-13.67-3.518-31.268-15.205C483.411,81.629,497.69,93.283,501.056,102.539Z" fill="#247f79"/>
      <g transform="translate(1134.108 9.352) rotate(180)">
        <path d="M636.484-136.144s17.591,13.79,25.313,29.323C668.233-121.4,650.427-133.766,636.484-136.144Z" fill="#247f79"/>
        <path d="M634.487-135.419s13.734,9.914,26.35,29.464C640.638-107.1,631.936-125.024,634.487-135.419Z" fill="#247f79"/>
      </g>
    </g>
    <g transform="translate(46.521 269.371)">
      <path d="M406.389,112.564a1.59,1.59,0,1,1-1.551-1.939A1.778,1.778,0,0,1,406.389,112.564Z" fill="#247f79"/>
      <path d="M403.541,117.549c.316,1.191-.1,2.307-.935,2.494s-1.763-.627-2.079-1.817.1-2.307.935-2.494S403.225,116.358,403.541,117.549Z" fill="#247f79"/>
      <path d="M409.727,118.324c-.408,1.167-1.4,1.917-2.215,1.676s-1.146-1.382-.739-2.549,1.4-1.917,2.215-1.676S410.135,117.157,409.727,118.324Z" fill="#247f79"/>
    </g>
    <g transform="translate(46.521 269.371)">
      <path d="M414.666,209.593q7.342,1.015,14.921,1.408a187.7,187.7,0,0,0,63.8-25.795c23.1-14.783,42.438-34.456,55.409-57.171h0a154.987,154.987,0,0,0,7.426-14.777,156.128,156.128,0,0,1-8.181,14.4,159.3,159.3,0,0,1-31.268,35.458,175.985,175.985,0,0,1-25.347,19.4,183.38,183.38,0,0,1-76.762,27.081h0Z" fill="#247f79" fill-rule="evenodd"/>
      <path d="M554.225,126.975s17.063-.763,30.529-6.643C578.624,131.536,562.358,131.375,554.225,126.975Z" fill="#247f79"/>
      <path d="M553.732,125.721s12.785-.1,31.111-6.295C574.508,111.709,559.071,118.58,553.732,125.721Z" fill="#247f79"/>
      <path d="M557.734,113.67s10.08-9.506,14.79-20.014C575.623,103.294,565.468,111.851,557.734,113.67Z" fill="#247f79"/>
      <path d="M556.658,113.219s7.845-6.853,15.364-20.125C560.887,94.2,555.568,106.315,556.658,113.219Z" fill="#247f79"/>
      <path d="M544.62,123.761s-9.233-12.074-12.221-24.7C526.814,109.809,536.339,120.8,544.62,123.761Z" fill="#247f79"/>
      <path d="M545.925,123.362s-7.3-8.768-12.841-24.89C545.338,100.99,548.658,115.537,545.925,123.362Z" fill="#247f79"/>
    </g>
    <path d="M268.722,557.822q6.318-3.528,13.069-6.71a226.78,226.78,0,0,1,67.025-6.352c26.176,1.522,50.64,7.922,70.387,18.9h0a124.418,124.418,0,0,1,11.925,7.529,130.031,130.031,0,0,0-12.478-6.972,153.179,153.179,0,0,0-40.839-12.909,190.668,190.668,0,0,0-29.833-3.9,223.766,223.766,0,0,0-79.256,10.419h0Z" fill="#247f79" fill-rule="evenodd"/>
    <path d="M424.507,562.318s15.776-6.008,30.076-7.042C445.086,549.759,430.359,556.109,424.507,562.318Z" fill="#247f79"/>
    <path d="M424.5,563.384s11.654-4.834,30.483-7.51C448.291,565.257,431.854,566.351,424.5,563.384Z" fill="#247f79"/>
    <path d="M432.359,570.318s12.492,2.81,20.453,8.382C452.254,570.744,440.026,568.63,432.359,570.318Z" fill="#247f79"/>
    <path d="M431.54,571.047a77.126,77.126,0,0,1,21.013,8.24C442.046,582.784,432.967,576.313,431.54,571.047Z" fill="#247f79"/>
    <path d="M416.9,568.265s-4.164,12.019-2.458,22.029C405.6,584.89,410.408,573.521,416.9,568.265Z" fill="#247f79"/>
    <path d="M418.223,568.045s-3.568,8.958-2.954,22.4C425.525,583.98,423.447,572.491,418.223,568.045Z" fill="#247f79"/>
    <path d="M290.632,539.907q7.254-1.458,14.487-3.574a173.319,173.319,0,0,0,49.621-45.009c15.859-21.383,26.3-46.1,29.624-71.576h0a147.991,147.991,0,0,0,1.214-16.241,145.194,145.194,0,0,1-17.545,59.509,161.033,161.033,0,0,1-16.168,26.432,170.055,170.055,0,0,1-61.233,50.458h0Z" fill="#247f79" fill-rule="evenodd"/>
    <path d="M389.025,416.978s15.647-6.3,25.952-16.212C413.59,413.245,398.329,418.424,389.025,416.978Z" fill="#247f79"/>
    <path d="M388.079,415.969s11.908-4.28,26.631-16.077C402.063,396.069,390.3,407.547,388.079,415.969Z" fill="#247f79"/>
    <path d="M387.148,403.4s5.736-12.185,6.066-23.547C399.844,387.84,393.67,399.163,387.148,403.4Z" fill="#247f79"/>
    <path d="M385.968,403.328s4.675-8.973,6.559-23.839C382.55,384.168,382.275,397.234,385.968,403.328Z" fill="#247f79"/>
    <path d="M378.8,417.123s-13.3-8.256-20.987-19.072C356.762,409.922,369.919,417.069,378.8,417.123Z" fill="#247f79"/>
    <path d="M379.869,416.323s-10.222-5.8-21.641-19.049c12.425-1.663,21.162,10.842,21.641,19.049Z" fill="#247f79"/>
    <path d="M275.035,298.3a137.691,137.691,0,0,0,2.529-13.6,156.849,156.849,0,0,0-23.7-60.277,169.5,169.5,0,0,0-58.3-54.683h0q-7.552-4.266-15.532-7.807,7.773,3.888,15.068,8.474a164.972,164.972,0,0,1,36.368,31.072,165.409,165.409,0,0,1,19.344,24.561c14.053,21.844,22.7,46.789,24.225,72.257h0Z" fill="#247f79" fill-rule="evenodd"/>
    <path d="M194.779,164.692s.319-15.708-5.157-28.46C201.365,142.61,200.1,157.524,194.779,164.692Z" fill="#247f79"/>
    <path d="M193.385,165.061s.753-11.738-4.74-28.971C179.579,145.056,186,159.682,193.385,165.061Z" fill="#247f79"/>
    <path d="M180.575,160.581s-9.636-9.888-20.719-14.916C170.52,143.469,179.121,153.362,180.575,160.581Z" fill="#247f79"/>
    <path d="M180.013,161.54s-6.907-7.659-20.8-15.45C159.66,156.382,172.45,162.077,180.013,161.54Z" fill="#247f79"/>
    <path d="M190.644,173.3s-13.718,7.662-27.615,9.556C174.313,188.7,186.874,180.7,190.644,173.3Z" fill="#247f79"/>
    <path d="M190.3,172.072s-10,6.114-27.865,10.112C165.989,171.108,181.994,169.039,190.3,172.072Z" fill="#247f79"/>
    <path d="M316.075,302.487a1.76,1.76,0,0,1-1.442,2.009,1.8,1.8,0,0,1-1.656-1.864,1.76,1.76,0,0,1,1.442-2.009A1.8,1.8,0,0,1,316.075,302.487Z" fill="#247f79"/>
    <path d="M313.508,307.6c.382,1.174.026,2.309-.8,2.535s-1.8-.543-2.177-1.718-.026-2.309.8-2.535S313.126,306.425,313.508,307.6Z" fill="#247f79"/>
    <path d="M319.728,308.083c-.342,1.184-1.291,1.98-2.119,1.778s-1.221-1.327-.879-2.511,1.291-1.98,2.119-1.778S320.07,306.9,319.728,308.083Z" fill="#247f79"/>
    <path d="M162.7,251.414a2.015,2.015,0,0,1-2.608.2c-.564-.593-.31-1.645.566-2.35a2.015,2.015,0,0,1,2.608-.2C163.831,249.657,163.578,250.709,162.7,251.414Z" fill="#247f79"/>
    <path d="M156.746,252.724c-.767,1-1.956,1.448-2.657.994s-.647-1.633.119-2.636,1.956-1.448,2.657-.994S157.513,251.722,156.746,252.724Z" fill="#247f79"/>
    <path d="M160.182,257.517c-1.223.486-2.49.293-2.83-.43s.377-1.7,1.6-2.189,2.49-.293,2.83.43S161.406,257.031,160.182,257.517Z" fill="#247f79"/>
    <path d="M173.18,492.96a1.644,1.644,0,0,1,.011,2.407,1.988,1.988,0,0,1-2.5-.707,1.644,1.644,0,0,1-.011-2.407A1.988,1.988,0,0,1,173.18,492.96Z" fill="#247f79"/>
    <path d="M174.124,498.523c1.025.783,1.413,1.909.866,2.515s-1.822.463-2.847-.32-1.413-1.909-.866-2.515S173.1,497.741,174.124,498.523Z" fill="#247f79"/>
    <path d="M179.593,495.756c.429,1.16.119,2.307-.692,2.56s-1.816-.482-2.245-1.642-.119-2.307.692-2.56S179.164,494.6,179.593,495.756Z" fill="#247f79"/>
    <path d="M641.6,241.695a1.909,1.909,0,0,1-2.194,1.313,1.674,1.674,0,0,1-.71-2.317,1.909,1.909,0,0,1,2.194-1.313A1.674,1.674,0,0,1,641.6,241.695Z" fill="#247f79"/>
    <path d="M637.025,245.44c-.16,1.217-.979,2.126-1.829,2.032s-1.41-1.157-1.251-2.374.979-2.126,1.829-2.032S637.185,244.223,637.025,245.44Z" fill="#247f79"/>
    <path d="M642.518,248.167c-.828.96-2.043,1.342-2.715.852s-.544-1.665.284-2.625,2.043-1.342,2.715-.852S643.346,247.207,642.518,248.167Z" fill="#247f79"/>
    <path d="M752.835,398.766a1.764,1.764,0,0,1-1.467,1.994,1.792,1.792,0,0,1-1.633-1.881,1.764,1.764,0,0,1,1.467-1.994A1.792,1.792,0,0,1,752.835,398.766Z" fill="#247f79"/>
    <path d="M750.2,403.851a2.2,2.2,0,0,1-1.162,2.538c-.824.217-1.638-.568-1.82-1.753a2.2,2.2,0,0,1,1.162-2.538C749.208,401.881,750.023,402.666,750.2,403.851Z" fill="#247f79"/>
    <path d="M756.418,404.4c-.118,1.172-.883,1.951-1.708,1.74a2.283,2.283,0,0,1-1.28-2.5c.118-1.172.883-1.951,1.708-1.74A2.283,2.283,0,0,1,756.418,404.4Z" fill="#247f79"/>
    <path d="M885.386,408.413a1.676,1.676,0,0,1-.739,2.309,1.906,1.906,0,0,1-2.177-1.336,1.676,1.676,0,0,1,.739-2.309A1.905,1.905,0,0,1,885.386,408.413Z" fill="#247f79"/>
    <path d="M884.56,413.993c.739,1.02.76,2.2.047,2.638s-1.89-.036-2.629-1.056-.76-2.2-.047-2.638S883.821,412.973,884.56,413.993Z" fill="#247f79"/>
    <path d="M890.661,412.78c.05,1.225-.6,2.241-1.46,2.271s-1.59-.94-1.64-2.164.6-2.241,1.46-2.271S890.611,411.556,890.661,412.78Z" fill="#247f79"/>
    <path d="M597.19,534.315a1.59,1.59,0,1,1-1.527-1.955A1.782,1.782,0,0,1,597.19,534.315Z" fill="#247f79"/>
    <path d="M594.283,539.27c.3,1.194-.13,2.306-.965,2.484s-1.755-.645-2.057-1.839.13-2.306.965-2.484S593.981,538.077,594.283,539.27Z" fill="#247f79"/>
    <path d="M600.458,540.109c-.422,1.163-1.422,1.9-2.235,1.653s-1.129-1.394-.708-2.557,1.423-1.9,2.235-1.653S600.88,538.947,600.458,540.109Z" fill="#247f79"/>
    <path d="M823.045,643.486a1.843,1.843,0,0,1,1.9-1.658,1.72,1.72,0,0,1,1.156,2.159,1.843,1.843,0,0,1-1.9,1.658A1.72,1.72,0,0,1,823.045,643.486Z" fill="#247f79"/>
    <path d="M826.8,639.038c-.084-1.223.542-2.255,1.4-2.3s1.616.9,1.7,2.125-.542,2.255-1.4,2.3S826.884,640.261,826.8,639.038Z" fill="#247f79"/>
    <path d="M820.86,637.275c.624-1.083,1.744-1.661,2.5-1.292s.864,1.546.24,2.629-1.744,1.661-2.5,1.292S820.236,638.358,820.86,637.275Z" fill="#247f79"/>
    <path d="M352.816,641.476a1.745,1.745,0,0,1,1.34-2.068A1.813,1.813,0,0,1,355.9,641.2a1.745,1.745,0,0,1-1.34,2.068A1.813,1.813,0,0,1,352.816,641.476Z" fill="#247f79"/>
    <path d="M355.126,636.26c-.44-1.157-.141-2.305.668-2.565s1.821.467,2.261,1.624.141,2.305-.668,2.566S355.566,637.417,355.126,636.26Z" fill="#247f79"/>
    <path d="M348.888,636.04c.283-1.2,1.191-2.033,2.028-1.866s1.286,1.274,1,2.471-1.191,2.033-2.028,1.866S348.6,637.237,348.888,636.04Z" fill="#247f79"/>
    <path d="M186.3,667.624a1.749,1.749,0,0,1-1.373,2.049,1.808,1.808,0,0,1-1.719-1.815,1.749,1.749,0,0,1,1.373-2.049A1.808,1.808,0,0,1,186.3,667.624Z" fill="#247f79"/>
    <path d="M183.905,672.807c.421,1.163.1,2.307-.709,2.556s-1.813-.492-2.234-1.655-.1-2.307.709-2.556S183.484,671.644,183.905,672.807Z" fill="#247f79"/>
    <path d="M190.138,673.113c-.3,1.194-1.224,2.016-2.058,1.838s-1.266-1.291-.963-2.485,1.224-2.016,2.058-1.838S190.441,671.919,190.138,673.113Z" fill="#247f79"/>
    <path d="M334.518,702.3a75.69,75.69,0,0,1-8.933-.655A73.613,73.613,0,0,1,301.9,677.617h0a65.274,65.274,0,0,1-9.244-38.175h0a63.659,63.659,0,0,1,3.277-15.98A62.524,62.524,0,0,0,294.2,639.49a61.859,61.859,0,0,0,3.039,17.726,63.525,63.525,0,0,0,7.725,18.72,71.182,71.182,0,0,0,29.55,26.36h0Z" fill="#247f79" fill-rule="evenodd"/>
    <path d="M301.772,684.647s-19-7.335-31.519-19.22c1.7,15.258,20.23,21.224,31.519,19.22Z" fill="#247f79"/>
    <path d="M302.919,683.386s-14.457-4.948-32.342-19.037C285.918,659.346,300.209,673.12,302.919,683.386Z" fill="#247f79"/>
    <path d="M289.653,647.158s-15.028-10.6-23.194-23.88C264.207,637.272,279.155,646.546,289.653,647.158Z" fill="#247f79"/>
    <path d="M290.98,646.276s-11.592-7.5-23.969-23.892C281.839,621.179,291.109,636.527,290.98,646.276Z" fill="#247f79"/>
    <path d="M294.436,622.975s-2.42-13.091.2-24.2C286.128,605.087,289.2,617.435,294.436,622.975Z" fill="#247f79"/>
    <path d="M295.6,623.166s-2.22-9.739-.205-24.59C303.876,605.3,300.764,618.055,295.6,623.166Z" fill="#247f79"/>
    <path d="M297.771,650.875s14.11-11.653,21.1-25.492C322.384,639.182,308.237,649.509,297.771,650.875Z" fill="#247f79"/>
    <path d="M296.362,650.091s10.945-8.314,21.877-25.56C303.272,624.4,295.359,640.374,296.362,650.091Z" fill="#247f79"/>
    <path d="M318.439,688.078s10-19.165,10.21-36.245C340.961,662.763,330.137,680.7,318.439,688.078Z" fill="#247f79"/>
    <path d="M316.295,688.16s8.182-14.185,11.1-36.76c-17.958,8.583-18.011,28.209-11.1,36.76Z" fill="#247f79"/>
    <path d="M594.569,690.528a66.18,66.18,0,0,0,7.264,3.235,75.746,75.746,0,0,0,30.526-8.326h0a65.113,65.113,0,0,0,26.469-25.094h0a56.838,56.838,0,0,0,5.534-13.49,57.412,57.412,0,0,1-6.761,12.879,61.028,61.028,0,0,1-11.318,12.176,65.052,65.052,0,0,1-15.457,10.972,72.689,72.689,0,0,1-36.256,7.648h0Z" fill="#247f79" fill-rule="evenodd"/>
    <path d="M628.9,690.823s18.451,2.374,34.175-1.409C654.044,700.275,636.65,697.06,628.9,690.823Z" fill="#247f79"/>
    <path d="M628.65,689.388s13.721,2.288,34.722-.927C653.994,678.257,635.941,682.733,628.65,689.388Z" fill="#247f79"/>
    <path d="M657.256,667.451s17.019-1.759,30.07-8.422c-5.326,11.555-21.614,12.344-30.07,8.422Z" fill="#247f79"/>
    <path d="M656.672,666.228s12.786-.844,30.678-8.108C676.45,651.011,661.5,658.779,656.672,666.228Z" fill="#247f79"/>
    <path d="M665.765,647.108s8.494-8.918,12.076-18.438C681.254,637.011,672.631,645.095,665.765,647.108Z" fill="#247f79"/>
    <path d="M664.766,646.767s6.645-6.459,12.587-18.566C667.371,629.76,663.341,640.733,664.766,646.767Z" fill="#247f79"/>
    <path d="M649.077,666.877s-5.061-14.734-3.493-28.153C635.885,647.724,641.645,661.468,649.077,666.877Z" fill="#247f79"/>
    <path d="M650.567,666.871s-4.292-10.879-4.06-28.528C658.191,644.495,656.257,659.921,650.567,666.871Z" fill="#247f79"/>
    <path d="M614.234,686.461s1.926-18.715,10.4-31.758C609.549,657.849,608.882,675.98,614.234,686.461Z" fill="#247f79"/>
    <path d="M615.856,687.419s.819-14.178,9.968-32.518C635.423,668.915,625.545,683.823,615.856,687.419Z" fill="#247f79"/>
    <g transform="matrix(0.985, 0.171, -0.171, 0.985, 443.096, 100.584)">
      <path d="M422.884,191.681a84.254,84.254,0,0,0,10.412-3.844A78.76,78.76,0,0,0,455.5,148.39a73.841,73.841,0,0,0-8.448-52.4,77.866,77.866,0,0,0-9.922-13.449,76.063,76.063,0,0,1,8.859,13.94,71.564,71.564,0,0,1,7.2,27.449,69.875,69.875,0,0,1-1.146,23.742c-3.816,17.036-14.281,32.922-29.156,44.005h0Z" fill="#247f79" fill-rule="evenodd"/>
      <path d="M458.775,140.66s14.132-13.79,20.337-29.323C484.282,125.919,469.978,138.282,458.775,140.66Z" fill="#247f79"/>
      <path d="M457.171,139.935s11.034-9.914,21.17-29.464C462.113,111.619,455.122,129.54,457.171,139.935Z" fill="#247f79"/>
      <path d="M453.324,101.871S462.389,86.58,464,71.392C472.225,83.344,462.65,97.4,453.324,101.871Z" fill="#247f79"/>
      <path d="M451.722,101.56s7.291-11.177,11.375-30.779C449.013,75.21,447.306,92.7,451.722,101.56Z" fill="#247f79"/>
      <path d="M438.289,81.55s-3.56-12.869-10.851-22.045C438,62.1,440.635,74.532,438.289,81.55Z" fill="#247f79"/>
      <path d="M437.311,82.156s-2.265-9.73-10.655-22.554C421.87,68.914,430.338,79.41,437.311,82.156Z" fill="#247f79"/>
      <path d="M447.543,108.3s-18.036-5.39-30.529-15.432c2.875,13.923,20.361,18.087,30.529,15.432Z" fill="#247f79"/>
      <path d="M448.485,107.054s-13.67-3.518-31.268-15.205C430.84,86.144,445.118,97.8,448.485,107.054Z" fill="#247f79"/>
      <g transform="translate(1134.11 9.352) rotate(180)">
        <path d="M689.058-140.66s17.591,13.79,25.313,29.323C720.807-125.919,703-138.282,689.058-140.66Z" fill="#247f79"/>
        <path d="M687.061-139.935s13.734,9.914,26.351,29.464C693.212-111.619,684.51-129.54,687.061-139.935Z" fill="#247f79"/>
      </g>
    </g>
    <path d="M-53.447,209.159h2.323v2.12h-2.323Z" fill="#247f79"/>
    <rect width="2.341" height="2.175" transform="matrix(0.948, -0.318, 0.318, 0.948, -50.704, 209.563)" fill="#247f79"/>
    <path d="M-75.719,213.512a.665.665,0,0,1-.958.448,1.045,1.045,0,0,1-.35-1.226.665.665,0,0,1,.958-.448,1.045,1.045,0,0,1,.35,1.226Z" fill="#247f79"/>
    <path d="M-75.362,214.738A1.078,1.078,0,0,1-75.78,216a.718.718,0,0,1-.994-.533,1.078,1.078,0,0,1,.419-1.266.718.718,0,0,1,.994.533Z" fill="#247f79"/>
    <path d="M-73.721,212.931a1.521,1.521,0,0,1-.354,1.626c-.4.305-.9.073-1.106-.52a1.521,1.521,0,0,1,.354-1.626C-74.424,212.106-73.929,212.338-73.721,212.931Z" fill="#247f79"/>
    <path d="M-76.25,217.65v0Z" fill="#247f79"/>
    <path d="M-73.639,216.777a.559.559,0,0,1-.989.009,1.373,1.373,0,0,1-.007-1.443.559.559,0,0,1,.989-.009,1.373,1.373,0,0,1,.007,1.443Z" fill="#247f79"/>
    <path d="M-72.054,213.527c-.163.454-.533.619-.828.369a1.241,1.241,0,0,1-.239-1.276c.163-.454.533-.619.828-.369a1.241,1.241,0,0,1,.239,1.276Z" fill="#247f79"/>
    <path d="M-71.86,216.9c-.1.5-.45.783-.773.622a1.133,1.133,0,0,1-.4-1.206c.1-.5.45-.783.773-.622a1.133,1.133,0,0,1,.4,1.206Z" fill="#247f79"/>
    <path d="M-72.49,214.177c.221.028.386.315.367.641s-.214.568-.435.541-.386-.315-.367-.641S-72.711,214.149-72.49,214.177Z" fill="#247f79"/>
    <rect width="4" height="4" transform="translate(-50.394 204.514)" fill="#247f79"/>
    <path d="M-54.19,200.259a1.239,1.239,0,0,1-.288,1.325c-.329.249-.732.059-.9-.424a1.239,1.239,0,0,1,.288-1.325C-54.763,199.586-54.36,199.776-54.19,200.259Z" fill="#247f79"/>
    <rect width="4.532" height="4.509" transform="translate(-50.633 199.029)" fill="#247f79"/>
    <path d="M-62.343,201.936c-.436,0-.79-.235-.79-.524s.353-.525.79-.525.79.235.79.524S-61.907,201.936-62.343,201.936Z" fill="#247f79"/>
    <path d="M-59.307,200.592c-.454.316-.9.3-.992-.043a1.321,1.321,0,0,1,.654-1.188c.454-.316.9-.3.992.043A1.321,1.321,0,0,1-59.307,200.592Z" fill="#247f79"/>
    <path d="M-60.82,200.758a.642.642,0,0,1,.564.674.576.576,0,0,1-.619.569.642.642,0,0,1-.564-.674A.576.576,0,0,1-60.82,200.758Z" fill="#247f79"/>
    <path d="M-59.391,201.89c-.436,0-.79-.235-.79-.524s.353-.525.79-.525.79.235.79.524S-58.955,201.89-59.391,201.89Z" fill="#247f79"/>
    <path d="M-60.343,199.9c0,.436-.235.79-.524.79s-.525-.353-.525-.79.235-.79.524-.79S-60.343,199.465-60.343,199.9Z" fill="#247f79"/>
    <path d="M-60.32,202.829c0,.436-.235.79-.524.79s-.525-.353-.525-.79.235-.79.524-.79S-60.32,202.393-60.32,202.829Z" fill="#247f79"/>
    <path d="M-62.084,203.392c-.454.316-.9.3-.992-.043a1.321,1.321,0,0,1,.654-1.188c.454-.316.9-.3.992.043A1.321,1.321,0,0,1-62.084,203.392Z" fill="#247f79"/>
    <path d="M-61.637,199.831c.316.454.3.9-.043.992a1.321,1.321,0,0,1-1.188-.654c-.316-.454-.3-.9.043-.992A1.321,1.321,0,0,1-61.637,199.831Z" fill="#247f79"/>
    <path d="M-58.884,202.561c.316.454.3.9-.043.992a1.321,1.321,0,0,1-1.188-.654c-.316-.454-.3-.9.043-.992A1.321,1.321,0,0,1-58.884,202.561Z" fill="#247f79"/>
    <rect width="5.734" height="5.737" transform="translate(-84.138 202.128)" fill="#247f79"/>
    <g transform="translate(61.176 -790.391)">
      <path d="M-123.134,997.815a.96.96,0,0,1-1.206.448.858.858,0,0,1-.1-1.226.96.96,0,0,1,1.206-.448A.858.858,0,0,1-123.134,997.815Z" fill="#247f79"/>
      <path d="M-122.776,999.04a.891.891,0,0,1-.183,1.266,1,1,0,0,1-1.229-.533.891.891,0,0,1,.183-1.266A1,1,0,0,1-122.776,999.04Z" fill="#247f79"/>
      <path d="M-121.135,997.234a1.253,1.253,0,0,1-.046,1.626c-.4.305-1.036.073-1.414-.52a1.253,1.253,0,0,1,.046-1.626C-122.147,996.409-121.513,996.642-121.135,997.234Z" fill="#247f79"/>
      <path d="M-123.664,1001.953a.82.82,0,0,1-.9-.708.82.82,0,0,1,.9-.709.82.82,0,0,1,.9.708A.82.82,0,0,1-123.664,1001.953Z" fill="#247f79"/>
      <path d="M-121.053,1001.081a.952.952,0,0,1-1.391.01,1.14,1.14,0,0,1,.4-1.443.952.952,0,0,1,1.391-.01A1.14,1.14,0,0,1-121.053,1001.081Z" fill="#247f79"/>
      <path d="M-119.469,997.83c-.3.454-.774.619-1.069.369a1.021,1.021,0,0,1,0-1.276c.3-.454.774-.619,1.069-.369A1.021,1.021,0,0,1-119.469,997.83Z" fill="#247f79"/>
      <path d="M-119.275,1001.2c-.188.5-.6.783-.926.622a.978.978,0,0,1-.246-1.206c.188-.5.6-.783.926-.622A.978.978,0,0,1-119.275,1001.2Z" fill="#247f79"/>
      <path d="M-119.9,998.479a.684.684,0,0,1,.7.641.666.666,0,0,1-.767.541.684.684,0,0,1-.7-.641A.666.666,0,0,1-119.9,998.479Z" fill="#247f79"/>
    </g>
  </g>
</svg>